<svg width="28" height="28" fill="none" xmlns="http://www.w3.org/2000/svg"><path d="M9.283 25h.984v-7.656h.54l1.8 7.656h1.968l1.824-7.656h.54V25h1.008v-8.616h-2.364L13.83 24.04h-.432l-1.752-7.656H9.283V25Zm12.113.12c1.176 0 2.376-.864 2.796-2.052h-1.224c-.096.78-.564 1.116-1.572 1.116-1.272 0-1.812-.504-1.812-1.728v-.276h4.632v-.444c0-1.764-1.236-3.132-2.82-3.132-1.704 0-2.988 1.488-2.988 3.384 0 1.836 1.272 3.132 2.988 3.132Zm-1.812-3.828v-.132c0-1.128.576-1.62 1.824-1.62 1.188 0 1.632.468 1.632 1.596v.156h-3.456Z" fill="currentColor"/><mask id="a" fill="#fff"><path fill-rule="evenodd" clip-rule="evenodd" d="M23.96 17a10.4 10.4 0 0 0 .44-3c0-5.744-4.656-10.4-10.4-10.4C8.256 3.6 3.6 8.256 3.6 14a10.38 10.38 0 0 0 3.9 8.119V23H7v.748A11.984 11.984 0 0 1 2 14C2 7.373 7.373 2 14 2s12 5.373 12 12c0 1.402-.24 2.749-.683 4H24v-1h-.04Zm-2.229-.09A3.001 3.001 0 0 0 23 11.764V12h-1v-.83A3 3 0 0 0 18.17 15H19v1l2.731.91ZM9 14.732A2 2 0 1 0 6.268 12H7v1H6a2 2 0 0 0 2 2v-1h1v.732ZM15 9V8h1v.732A2 2 0 1 0 13.268 6H14v1h-1a2 2 0 0 0 2 2Zm7.6 5a1.6 1.6 0 1 1-3.2 0 1.6 1.6 0 0 1 3.2 0Z"/></mask><path fill-rule="evenodd" clip-rule="evenodd" d="M23.96 17a10.4 10.4 0 0 0 .44-3c0-5.744-4.656-10.4-10.4-10.4C8.256 3.6 3.6 8.256 3.6 14a10.38 10.38 0 0 0 3.9 8.119V23H7v.748A11.984 11.984 0 0 1 2 14C2 7.373 7.373 2 14 2s12 5.373 12 12c0 1.402-.24 2.749-.683 4H24v-1h-.04Zm-2.229-.09A3.001 3.001 0 0 0 23 11.764V12h-1v-.83A3 3 0 0 0 18.17 15H19v1l2.731.91ZM9 14.732A2 2 0 1 0 6.268 12H7v1H6a2 2 0 0 0 2 2v-1h1v.732ZM15 9V8h1v.732A2 2 0 1 0 13.268 6H14v1h-1a2 2 0 0 0 2 2Zm7.6 5a1.6 1.6 0 1 1-3.2 0 1.6 1.6 0 0 1 3.2 0Z" fill="currentColor"/><path d="m23.96 17-1.34-.403-.542 1.803h1.883V17ZM7.5 22.119h1.4v-.672l-.524-.42-.876 1.092Zm0 .881v1.4h1.4V23H7.5ZM7 23v-1.4H5.6V23H7Zm0 .748-.818 1.136L8.4 26.48v-2.732H7ZM25.317 18v1.4h.99l.33-.933-1.32-.467ZM24 18h-1.4v1.4H24V18Zm0-1h1.4v-1.4H24V17Zm-2.269-.09-.443 1.328.387.13.396-.1-.34-1.358ZM23 11.764l.934-1.043L21.6 8.632v3.132H23ZM23 12v1.4h1.4V12H23Zm-1 0h-1.4v1.4H22V12Zm0-.83h1.4v-.99l-.933-.33L22 11.17ZM18.17 15l-1.32.466.33.934h.99V15Zm.83 0h1.4v-1.4H19V15Zm0 1h-1.4v1.01l.957.318L19 16ZM9 14.732H7.6v2.428l2.101-1.216L9 14.732ZM6.268 12l-1.212-.701L3.84 13.4h2.428V12ZM7 12h1.4v-1.4H7V12Zm0 1v1.4h1.4V13H7Zm-1 0v-1.4H4.6V13H6Zm2 2v1.4h1.4V15H8Zm0-1v-1.4H6.6V14H8Zm1 0h1.4v-1.4H9V14Zm6-5v1.4h1.4V9H15Zm0-1V6.6h-1.4V8H15Zm1 0h1.4V6.6H16V8Zm0 .732h-1.4v2.428l2.101-1.216L16 8.732ZM13.268 6l-1.212-.701L10.84 7.4h2.428V6ZM14 6h1.4V4.6H14V6Zm0 1v1.4h1.4V7H14Zm-1 0V5.6h-1.4V7H13Zm10 7a9 9 0 0 1-.38 2.597l2.681.806A11.8 11.8 0 0 0 25.8 14H23Zm-9-9a9 9 0 0 1 9 9h2.8c0-6.517-5.283-11.8-11.8-11.8V5Zm-9 9a9 9 0 0 1 9-9V2.2C7.483 2.2 2.2 7.483 2.2 14H5Zm3.376 7.027A8.98 8.98 0 0 1 5 14H2.2a11.78 11.78 0 0 0 4.424 9.211l1.752-2.184ZM8.9 23v-.881H6.1V23h2.8ZM7 24.4h.5v-2.8H7v2.8Zm1.4-.652V23H5.6v.748h2.8Zm-.582-1.137A10.584 10.584 0 0 1 3.4 14H.6c0 4.485 2.204 8.454 5.582 10.884l1.636-2.273ZM3.4 14C3.4 8.146 8.146 3.4 14 3.4V.6C6.6.6.6 6.6.6 14h2.8ZM14 3.4c5.854 0 10.6 4.746 10.6 10.6h2.8C27.4 6.6 21.4.6 14 .6v2.8ZM24.6 14c0 1.241-.213 2.43-.603 3.534l2.64.933A13.38 13.38 0 0 0 27.4 14h-2.8Zm-.6 5.4h1.317v-2.8H24v2.8ZM22.6 17v1h2.8v-1h-2.8Zm1.36 1.4H24v-2.8h-.04v2.8Zm-1.889-.132A4.401 4.401 0 0 0 25.4 14h-2.8c0 .747-.514 1.378-1.21 1.552l.681 2.716ZM25.4 14a4.393 4.393 0 0 0-1.466-3.28l-1.868 2.087c.33.295.534.72.534 1.193h2.8Zm-3.8-2.236V12h2.8v-.236h-2.8ZM23 10.6h-1v2.8h1v-2.8Zm.4 1.4v-.83h-2.8V12h2.8Zm-.933-2.15A4.394 4.394 0 0 0 21 9.6v2.8c.19 0 .368.032.534.09l.933-2.64ZM21 9.6a4.4 4.4 0 0 0-4.4 4.4h2.8a1.6 1.6 0 0 1 1.6-1.6V9.6ZM16.6 14c0 .512.088 1.006.25 1.466l2.64-.932A1.597 1.597 0 0 1 19.4 14h-2.8Zm1.57 2.4H19v-2.8h-.83v2.8ZM17.6 15v1h2.8v-1h-2.8Zm.957 2.328 2.731.91.886-2.656-2.731-.91-.886 2.656Zm-8.856-1.384A3.4 3.4 0 0 0 11.4 13H8.6a.6.6 0 0 1-.301.52l1.402 2.424ZM11.4 13A3.4 3.4 0 0 0 8 9.6v2.8a.6.6 0 0 1 .6.6h2.8ZM8 9.6a3.4 3.4 0 0 0-2.944 1.699l2.423 1.402A.6.6 0 0 1 8 12.4V9.6Zm-1 1h-.732v2.8H7v-2.8ZM8.4 13v-1H5.6v1h2.8ZM6 14.4h1v-2.8H6v2.8ZM4.6 13A3.4 3.4 0 0 0 8 16.4v-2.8a.6.6 0 0 1-.6-.6H4.6Zm4.8 2v-1H6.6v1h2.8Zm-1.4.4h1v-2.8H8v2.8ZM7.6 14v.732h2.8V14H7.6Zm8.8-5V8h-2.8v1h2.8Zm-1.4.4h1V6.6h-1v2.8ZM14.6 8v.732h2.8V8h-2.8Zm2.101 1.944A3.4 3.4 0 0 0 18.4 7h-2.8a.6.6 0 0 1-.301.52l1.402 2.424ZM18.4 7A3.4 3.4 0 0 0 15 3.6v2.8a.6.6 0 0 1 .6.6h2.8ZM15 3.6a3.4 3.4 0 0 0-2.944 1.699l2.423 1.402A.6.6 0 0 1 15 6.4V3.6Zm-1 1h-.732v2.8H14V4.6ZM15.4 7V6h-2.8v1h2.8ZM13 8.4h1V5.6h-1v2.8ZM11.6 7a3.4 3.4 0 0 0 3.4 3.4V7.6a.6.6 0 0 1-.6-.6h-2.8ZM21 17a3 3 0 0 0 3-3h-2.8a.2.2 0 0 1-.2.2V17Zm-3-3a3 3 0 0 0 3 3v-2.8a.2.2 0 0 1-.2-.2H18Zm3-3a3 3 0 0 0-3 3h2.8c0-.11.09-.2.2-.2V11Zm3 3a3 3 0 0 0-3-3v2.8c.11 0 .2.09.2.2H24Z" fill="currentColor" mask="url(#a)"/></svg>