<svg width="29" height="28" fill="none" xmlns="http://www.w3.org/2000/svg"><path fill-rule="evenodd" clip-rule="evenodd" d="M20 16.259a28.65 28.65 0 0 0 4.4-2.329 10.55 10.55 0 0 0-.047-.93H22v-1h-1v-1h2.96C22.674 6.719 18.7 3.6 14 3.6A10.398 10.398 0 0 0 4.879 9H11v1h1V9h2v2-1h-1v1H8v-1H7v1H4.04a10.4 10.4 0 0 0-.393 4H7v1h1v-1 2H6v-1H5v1h-.96c.232.774.553 1.51.95 2.197a44.27 44.27 0 0 0 5.01-.332V20H9v.586a45.586 45.586 0 0 1-2.89.19A10.428 10.428 0 0 0 10 23.602V24H9v.912a12.049 12.049 0 0 1-4.89-4.114 100.25 100.25 0 0 1-.524-.005c-.845 0-1.65-.138-2.273-.495C.647 19.915.2 19.28.2 18.435c0-.619.25-1.196.496-1.621.252-.436.554-.802.772-1.02l.017-.017.017-.016.563-.501A12.14 12.14 0 0 1 2 14C2 7.373 7.373 2 14 2c4.985 0 9.26 3.04 11.072 7.366l.041-.01a5.239 5.239 0 0 1 1.666-.138c.58.054 1.431.273 1.831 1.075.55 1.104.025 2.104-.55 2.775-.58.674-1.404 1.255-1.998 1.671l-.088.061c-.05.755-.17 1.49-.352 2.2H25v1h.317c-.12.34-.256.674-.405 1h-.474a3.817 3.817 0 0 0-.438-.581V17h-.04c.107-.352.194-.712.263-1.079-.734.433-1.477.827-2.223 1.187V17h-1v.568c-.233.103-.466.202-.7.299l-.8.133-.083-1H20v-.741Zm-17.586.876c.191.71.446 1.392.757 2.043-.486-.038-.838-.14-1.062-.268-.239-.137-.309-.28-.309-.474 0-.212.095-.5.28-.819.107-.184.227-.35.334-.482Zm24.216-6.324a3.624 3.624 0 0 0-1.038.075c.17.634.29 1.29.353 1.96.342-.264.658-.539.901-.821.431-.502.444-.792.332-1.018-.014-.028-.111-.155-.548-.196Z" fill="currentColor"/><path d="M14.338 25.12c1.668 0 3.012-1.176 3.012-2.652 0-1.284-.804-2.016-2.484-2.268l-.576-.084c-1.356-.204-1.728-.468-1.728-1.212v-.408c0-.852.528-1.26 1.632-1.26 1.284 0 1.728.408 1.776 1.644h1.26c-.216-1.596-1.392-2.616-3.036-2.616-1.5 0-2.76 1.128-2.76 2.484 0 1.224.948 2.16 2.448 2.376l.576.084c1.464.216 1.764.408 1.764 1.104v.48c0 .924-.612 1.356-1.884 1.356-1.404 0-1.884-.432-1.944-1.764h-1.26c.204 1.644 1.476 2.736 3.204 2.736Zm5.133 0c.72 0 1.32-.336 1.704-.912h.48V25h1.056v-4.092c0-1.488-.971-2.304-2.435-2.304-1.369 0-2.424.84-2.64 2.244h1.08c.047-1.068.395-1.308 1.523-1.308 1.092 0 1.416.252 1.416 1.308v.564h-1.8c-1.428 0-2.375.756-2.375 1.788 0 1.08.816 1.92 1.991 1.92Zm.18-.936c-.756 0-1.032-.252-1.032-.84v-.336c0-.468.276-.708.96-.708h2.076v1.02h-.816c-.072.564-.431.864-1.188.864Z" fill="currentColor"/></svg>