<svg width="28" height="28" fill="none" xmlns="http://www.w3.org/2000/svg"><path d="M13.89 25.12c1.667 0 3.011-1.176 3.011-2.652 0-1.284-.804-2.016-2.484-2.268l-.576-.084c-1.356-.204-1.728-.468-1.728-1.212v-.408c0-.852.528-1.26 1.632-1.26 1.284 0 1.728.408 1.776 1.644h1.26c-.216-1.596-1.392-2.616-3.036-2.616-1.5 0-2.76 1.128-2.76 2.484 0 1.224.948 2.16 2.448 2.376l.576.084c1.464.216 1.764.408 1.764 1.104v.48c0 .924-.612 1.356-1.884 1.356-1.404 0-1.884-.432-1.944-1.764h-1.26c.204 1.644 1.476 2.736 3.204 2.736Zm6.615 0c1.68 0 2.976-1.428 2.976-3.264 0-1.836-1.296-3.252-2.976-3.252s-2.976 1.416-2.976 3.252c0 1.836 1.296 3.264 2.976 3.264Zm0-.936c-1.26 0-1.8-.552-1.8-1.848v-.96c0-1.284.54-1.836 1.8-1.836s1.8.552 1.8 1.836v.96c0 1.296-.54 1.848-1.8 1.848Z" fill="currentColor"/><path fill-rule="evenodd" clip-rule="evenodd" d="M24.352 15c.032-.33.048-.663.048-1 0-5.744-4.656-10.4-10.4-10.4C8.256 3.6 3.6 8.256 3.6 14c0 4.326 2.642 8.036 6.4 9.603V24H9v.912C4.869 23.016 2 18.843 2 14 2 7.373 7.373 2 14 2s12 5.373 12 12c0 1.036-.131 2.041-.378 3H25v1h.317c-.12.34-.256.674-.405 1h-.678a5.546 5.546 0 0 0-.234-.29v-1.844c.081-.284.15-.573.208-.866H25v-1h-.648ZM9.227 8.179a1.8 1.8 0 0 1 2.546 0l.82.821H12v1h1v-.594l.821.821a1.8 1.8 0 0 1 0 2.546l-.821.82V13h-1v-.669l.69-.69a.2.2 0 0 0 0-.282L10.64 9.31a.2.2 0 0 0-.282 0l-.69.69H9v.669l-.69.69a.2.2 0 0 0 0 .282l2.049 2.049a.2.2 0 0 0 .282 0l.69-.69H12v1h.594l-.821.821a1.8 1.8 0 0 1-2.546 0L8 13.594V13h-.594l-.227-.227a1.8 1.8 0 0 1 0-2.546L7.406 10H8v-.594L9.227 8.18Z" fill="currentColor"/></svg>