<svg width="28" height="28" fill="none" xmlns="http://www.w3.org/2000/svg"><path fill-rule="evenodd" clip-rule="evenodd" d="M24.4 15v-1A10.4 10.4 0 1 0 10 23.6v.4H9v1a12 12 0 1 1 16.6-8H25v1h.3l-.4 1h-.7l-.2-.3V17l.2-.9h.8v-1h-.6ZM9.2 8.2c.7-.7 1.9-.7 2.6 0l.8.8H12v1h1v-.6l.8.8c.7.7.7 1.9 0 2.6l-.8.8V13h-1v-.7l.7-.7v-.2l-2-2c-.1-.2-.3-.2-.3 0l-.7.6H9v.7l-.7.7v.2l2 2c.1.2.3.2.3 0l.7-.6h.7v1h.6l-.8.8c-.7.7-1.9.7-2.6 0L8 13.6V13h-.6l-.2-.2c-.7-.7-.7-1.9 0-2.6l.2-.2H8v-.6l1.2-1.2Z" fill="currentColor"/><path d="M14 25.1c1.7 0 3-1.2 3-2.6 0-1.3-.7-2-2.4-2.3H14c-1.3-.3-1.7-.6-1.7-1.3v-.4c0-.9.5-1.3 1.6-1.3 1.3 0 1.8.4 1.8 1.7H17a2.9 2.9 0 0 0-3-2.6c-1.6 0-2.8 1-2.8 2.4 0 1.3 1 2.2 2.4 2.4l.6.1c1.5.2 1.8.4 1.8 1.1v.5c0 1-.6 1.3-2 1.3-1.3 0-1.8-.4-1.9-1.7H11C11 24 12.4 25 14 25ZM19.5 25.1c.8 0 1.5-.4 1.9-1.3h.4V25h1v-6.3h-1V23h-1c0 1-.4 1.3-1.2 1.3-.7 0-1-.4-1-1.3v-4.2h-1V23c0 1.3.8 2.2 1.9 2.2Z" fill="currentColor"/></svg>