<svg width="40" height="40" fill="none" xmlns="http://www.w3.org/2000/svg"><path d="M8.3 11.7v16.6M31.7 16.7v-5" stroke="#fff" stroke-width="1.5" stroke-linecap="round" stroke-linejoin="round"/><path clip-rule="evenodd" d="M10 35H6.7c-1 0-1.7-.7-1.7-1.7V30c0-1 .7-1.7 1.7-1.7H10c1 0 1.7.8 1.7 1.7v3.3c0 1-.8 1.7-1.7 1.7Z" stroke="#fff" stroke-width="1.5" stroke-linecap="round" stroke-linejoin="round"/><path clip-rule="evenodd" d="M10 35H6.7c-1 0-1.7-.7-1.7-1.7V30c0-1 .7-1.7 1.7-1.7H10c1 0 1.7.8 1.7 1.7v3.3c0 1-.8 1.7-1.7 1.7ZM33.3 11.7H30c-1 0-1.7-.8-1.7-1.7V6.7c0-1 .8-1.7 1.7-1.7h3.3c1 0 1.7.7 1.7 1.7V10c0 1-.7 1.7-1.7 1.7ZM10 11.7H6.7c-1 0-1.7-.8-1.7-1.7V6.7C5 5.7 5.7 5 6.7 5H10c1 0 1.7.7 1.7 1.7V10c0 1-.8 1.7-1.7 1.7Z" stroke="#fff" stroke-width="1.5" stroke-linecap="round" stroke-linejoin="round"/><path clip-rule="evenodd" d="M10 11.7H6.7c-1 0-1.7-.8-1.7-1.7V6.7C5 5.7 5.7 5 6.7 5H10c1 0 1.7.7 1.7 1.7V10c0 1-.8 1.7-1.7 1.7Z" stroke="#fff" stroke-width="1.5" stroke-linecap="round" stroke-linejoin="round"/><path d="M11.7 31.7h5M28.3 8.3H11.7" stroke="#fff" stroke-width="1.5" stroke-linecap="round" stroke-linejoin="round"/><path d="m31.2 27.2 1.3-1.4c1-.9 1-2.4 0-3.3v0c-1-1-2.4-1-3.3 0l-1.4 1.3M23.8 27.8l-1.3 1.4c-1 .9-1 2.4 0 3.3v0c1 1 2.4 1 3.3 0l1.4-1.3M25 20v1.7M21.7 25H20M30 35v-1.7M33.3 30H35" stroke="#6D0DFC" stroke-width="1.5" stroke-linecap="round" stroke-linejoin="round"/></svg>