<svg width="31" height="18" viewBox="0 0 31 18" fill="none" xmlns="http://www.w3.org/2000/svg">
<path d="M12.6964 7.76884L12.6964 5.25L15.213 5.25L15.213 7.76884L12.6964 7.76884Z" fill="white"/>
<path d="M12.6964 7.76884L12.6964 5.25L15.213 5.25L15.213 7.76884L12.6964 7.76884Z" fill="white"/>
<path d="M10.1979 10.2946L10.1996 7.77846L12.7145 7.77571L12.7145 10.2946L10.1979 10.2946Z" fill="white"/>
<path d="M10.1979 10.2946L10.1996 7.77846L12.7145 7.77571L12.7145 10.2946L10.1979 10.2946Z" fill="white"/>
<path d="M5.18159 10.2875L5.18159 7.76862L7.69818 7.76862L7.69818 10.2875L5.18159 10.2875Z" fill="white"/>
<path d="M5.18159 10.2875L5.18159 7.76862L7.69818 7.76862L7.69818 10.2875L5.18159 10.2875Z" fill="white"/>
<path d="M2.66504 7.76884L2.66504 5.25L5.18163 5.25L5.18159 7.76862L2.66504 7.76884Z" fill="white"/>
<path d="M2.66504 7.76884L2.66504 5.25L5.18163 5.25L5.18159 7.76862L2.66504 7.76884Z" fill="white"/>
<path d="M7.69818 10.2875L7.70188 13.2916L10.1996 13.2916L10.1979 10.2946L7.69818 10.2875Z" fill="white"/>
<path d="M7.69818 10.2875L7.70188 13.2916L10.1996 13.2916L10.1979 10.2946L7.69818 10.2875Z" fill="white"/>
</svg>
