<svg width="24" height="24" viewBox="0 0 24 24" fill="none" xmlns="http://www.w3.org/2000/svg">
<path d="M12.8435 16H11.1565L10.9852 16.6393C10.3353 19.065 7.842 20.5045 5.41635 19.8545C2.9907 19.2046 1.55122 16.7113 2.20117 14.2856L3.92087 7.86763C4.57082 5.44198 7.06408 4.00249 9.48973 4.65244C10.5422 4.93444 11.409 5.56345 12 6.38339C12.591 5.56345 13.4578 4.93444 14.5103 4.65244C16.9359 4.00249 19.4292 5.44198 20.0791 7.86763L21.7988 14.2856C22.4488 16.7113 21.0093 19.2046 18.5836 19.8545C16.158 20.5045 13.6647 19.065 13.0148 16.6393L12.8435 16ZM17.4564 18.1052C18.9631 18.1052 20.1845 16.8378 20.1845 15.2744C20.1845 13.711 18.9631 12.4436 17.4564 12.4436C15.9496 12.4436 14.7282 13.711 14.7282 15.2744C14.7282 16.8378 15.9496 18.1052 17.4564 18.1052ZM6.54367 18.1052C8.0504 18.1052 9.27184 16.8378 9.27184 15.2744C9.27184 13.711 8.0504 12.4436 6.54367 12.4436C5.03694 12.4436 3.81549 13.711 3.81549 15.2744C3.81549 16.8378 5.03694 18.1052 6.54367 18.1052Z" fill="currentColor"/>
</svg>
