<svg width="14" height="14" fill="none" xmlns="http://www.w3.org/2000/svg"><path d="M8.355 11.626v1.57L6.98 14l-1.335-.805v-1.57l1.335.805 1.375-.804ZM1 6.196 2.336 7v2.692l2.3 1.37v1.57L1 10.496V6.196Zm11.96 0v4.307l-3.673 2.135v-1.57l2.3-1.37V7.007l1.374-.81ZM9.28 4.06l1.375.805v1.57l-2.3 1.368v2.732l-1.335.804-1.33-.804V7.798L3.307 6.429V4.86l1.375-.804 2.3 1.369 2.3-1.363ZM3.306 7.558l1.336.804v1.57l-1.336-.804v-1.57Zm7.349 0v1.57l-1.336.804v-1.57l1.336-.804Zm-8.32-4.866 1.375.805-1.374.804v1.57L1 5.067v-1.57l1.336-.805Zm9.29 0L13 3.497v1.57l-1.375.804v-1.57l-1.335-.804 1.335-.805Zm-4.645 0 1.375.805L6.98 4.3l-1.335-.804 1.335-.805ZM6.98 0l3.675 2.134-1.336.805-2.3-1.369-2.345 1.369-1.335-.805L6.98 0Z" fill="currentColor"/></svg>