<svg width="24" height="24" fill="none" xmlns="http://www.w3.org/2000/svg"><path fill-rule="evenodd" clip-rule="evenodd" d="M7.02 7.68a4.99 4.99 0 0 1 9.96 0H7.02Zm-1.9 0a6.88 6.88 0 0 1 13.76 0 3.92 3.92 0 0 1 3.71 3.91v6.68a3.92 3.92 0 0 1-3.91 3.92H5.32a3.92 3.92 0 0 1-3.91-3.92v-6.68c0-2.1 1.64-3.8 3.7-3.9Zm15.57 3.91v6.68c0 1.11-.9 2.02-2.01 2.02H5.32c-1.11 0-2.01-.9-2.01-2.02v-6.68c0-1.11.9-2.01 2.01-2.01h13.36c1.11 0 2.01.9 2.01 2.01Z" fill="#6C7479"/><path fill-rule="evenodd" clip-rule="evenodd" d="M12 12.13c.52 0 .95.42.95.95v2.96a.95.95 0 1 1-1.9 0v-2.96c0-.53.43-.95.95-.95Z" fill="#D9A21F"/></svg>