<svg width="28" height="28" fill="none" xmlns="http://www.w3.org/2000/svg"><path fill-rule="evenodd" clip-rule="evenodd" d="M10 21v-2H8v1H7v-1H4.879a10.328 10.328 0 0 1-1.087-3H8v-1H7v-1H3.6c0-1.043.154-2.05.44-3H13v-1h1V9H4.879A10.397 10.397 0 0 1 14 3.6c5.06 0 9.275 3.613 10.208 8.4H20v1h-1v-1h-1v2h5v-1h1v1h.4a10.4 10.4 0 0 1-.44 3H24v1.71c.081.094.16.19.234.29h.678c.15-.326.285-.66.405-1H25v-1h.622c.247-.959.378-1.964.378-3 0-6.627-5.373-12-12-12S2 7.373 2 14c0 4.843 2.869 9.016 7 10.912V24h1v-.397A10.423 10.423 0 0 1 6.308 21H10Z" fill="currentColor"/><path d="M13.368 25h2.004l2.328-8.616h-1.104l-1.944 7.656h-.48l-1.956-7.656h-1.152L13.368 25ZM20.29 25.12c1.176 0 2.376-.864 2.796-2.052h-1.224c-.096.78-.564 1.116-1.572 1.116-1.272 0-1.812-.504-1.812-1.728v-.276h4.632v-.444c0-1.764-1.236-3.132-2.82-3.132-1.704 0-2.988 1.488-2.988 3.384 0 1.836 1.272 3.132 2.988 3.132Zm-1.812-3.828v-.132c0-1.128.576-1.62 1.824-1.62 1.188 0 1.632.468 1.632 1.596v.156h-3.456Z" fill="currentColor"/></svg>