<svg width="28" height="28" fill="none" xmlns="http://www.w3.org/2000/svg"><path fill-rule="evenodd" clip-rule="evenodd" d="M23.96 17c.194-.643.327-1.312.392-2H23v-1h-1v1h-3v-3h-1v-1a1 1 0 0 1 1-1h1v1h1v-1h2.603A10.403 10.403 0 0 0 14 3.6c-2.527 0-4.844.901-6.646 2.4H14v1h1v1a1 1 0 0 1-1 1h-2v1h-1v1H7V9H6v2H4.04a10.4 10.4 0 0 0-.44 3c0 4.326 2.642 8.036 6.4 9.603V24H9v.912C4.869 23.016 2 18.843 2 14c0-3.043 1.133-5.822 3-7.937V6h.056A11.97 11.97 0 0 1 14 2c6.627 0 12 5.373 12 12 0 1.036-.131 2.041-.378 3H25v1h.317c-.12.34-.256.674-.405 1h-.678a5.546 5.546 0 0 0-.234-.29V17h-.04ZM21 12h-1v1h1v-1ZM8 8h2V7H8v1Z" fill="currentColor"/><path d="M12.44 25h4.931v-.96H13.52v-3.012h3.408v-.96H13.52v-2.724h3.768v-.96H12.44V25ZM19.503 25.12c.72 0 1.32-.336 1.704-.912h.48V25h1.056v-4.092c0-1.488-.972-2.304-2.436-2.304-1.368 0-2.424.84-2.64 2.244h1.08c.048-1.068.396-1.308 1.524-1.308 1.092 0 1.416.252 1.416 1.308v.564h-1.8c-1.428 0-2.376.756-2.376 1.788 0 1.08.816 1.92 1.992 1.92Zm.18-.936c-.756 0-1.032-.252-1.032-.84v-.336c0-.468.276-.708.96-.708h2.076v1.02h-.816c-.072.564-.432.864-1.188.864Z" fill="currentColor"/></svg>