<svg width="28" height="28" fill="none" xmlns="http://www.w3.org/2000/svg"><path d="M14.218 25.12c1.848 0 3.048-1.2 3.048-3.036v-5.7h-1.08v5.988c0 1.236-.6 1.776-1.968 1.776-1.38 0-1.968-.528-1.968-1.776v-5.988h-1.08v5.7c0 1.836 1.2 3.036 3.048 3.036Zm4.373-.12h1.056v-3.828h1.188c0-.972.324-1.236 1.044-1.236h.732v-1.332c-1.74.012-2.328 1.128-2.484 1.68h-.48v-1.56h-1.056V25Z" fill="currentColor"/><path fill-rule="evenodd" clip-rule="evenodd" d="M10 23.603A10.403 10.403 0 0 1 3.6 14C3.6 8.256 8.256 3.6 14 3.6c5.744 0 10.4 4.656 10.4 10.4a10.4 10.4 0 0 1-.44 3H24v2h-.024l.024.027V19h.912c.15-.326.285-.66.405-1H25v-1h.622c.247-.959.378-1.964.378-3 0-6.627-5.373-12-12-12S2 7.373 2 14c0 4.843 2.869 9.016 7 10.912V24h1v-.397ZM12.83 15a3.004 3.004 0 0 0-.83-1.236V14h-1v-.83A3 3 0 0 0 7.17 17H8v1h-.236c.55.614 1.347 1 2.236 1v-1.4a1.6 1.6 0 1 1 1.25-2.6h1.58ZM17 10.6a1.6 1.6 0 1 1 1-.35V11h-1v-.4ZM20 9a3 3 0 1 1-5.83-1H15V7h-.236A3 3 0 0 1 20 9Z" fill="currentColor"/></svg>