<svg width="28" height="28" fill="none" xmlns="http://www.w3.org/2000/svg"><path fill-rule="evenodd" clip-rule="evenodd" d="M23.96 17a10.4 10.4 0 0 0 .44-3c0-5.744-4.656-10.4-10.4-10.4C8.256 3.6 3.6 8.256 3.6 14c0 3.51 1.738 6.612 4.4 8.496V23H7v.748A11.984 11.984 0 0 1 2 14C2 7.373 7.373 2 14 2s12 5.373 12 12c0 1.036-.131 2.041-.378 3H25v1h-.868a3.24 3.24 0 0 0-.132-.116V17h-.04ZM8 20a5.001 5.001 0 0 1 1-8.584V12h1v-.9a4.993 4.993 0 0 1 5 1.9h-2v.006A3.6 3.6 0 0 0 7.54 17H7v1h1v2Zm5.994-6c.203.304.361.64.465 1H15.9a4.964 4.964 0 0 0-.316-1h-1.59ZM16 9.6a1.6 1.6 0 1 0 0-3.2 1.6 1.6 0 0 0 0 3.2Zm0 1.4a3 3 0 0 0 3-3h-1V7h.83A3.001 3.001 0 0 0 15 5.17V6h-1v-.236c-.614.55-1 1.348-1 2.236 0 .889.386 1.687 1 2.236V10h1v.83c.313.11.65.17 1 .17Zm5.6 2a.6.6 0 1 1-1.2 0 .6.6 0 0 1 1.2 0Zm1.4 0a2 2 0 1 1-.268-1H22v1h1Z" fill="currentColor"/><path d="M9.382 25h.984v-7.656h.54l1.8 7.656h1.968l1.824-7.656h.54V25h1.008v-8.616h-2.364L13.93 24.04h-.432l-1.752-7.656H9.382V25Zm11.177.12c.72 0 1.32-.336 1.704-.912h.48V25H23.8v-4.092c0-1.488-.972-2.304-2.436-2.304-1.368 0-2.424.84-2.64 2.244h1.08c.048-1.068.396-1.308 1.524-1.308 1.092 0 1.416.252 1.416 1.308v.564h-1.8c-1.428 0-2.376.756-2.376 1.788 0 1.08.816 1.92 1.992 1.92Zm.18-.936c-.756 0-1.032-.252-1.032-.84v-.336c0-.468.276-.708.96-.708h2.076v1.02h-.816c-.072.564-.432.864-1.188.864Z" fill="currentColor"/></svg>