<svg version="1.1" id="Layer_1" xmlns="http://www.w3.org/2000/svg" x="0" y="0" viewBox="0 0 24 24" style="enable-background:new 0 0 24 24" xml:space="preserve"><style>.st1{fill:#e4761b}.st2{fill:#d7c1b3}.st3{fill:#233447}.st4{fill:#cd6116}.st5{fill:#e4751f}.st6{fill:#f6851b}.st9{fill:#763d16}</style><path style="fill:#e2761b" d="M21.7 1.8 13.3 8l1.5-3.7z"/><path class="st1" d="m2.3 1.8 8.3 6.3-1.5-3.8zM18.7 16.2l-2.3 3.5 4.8 1.3 1.4-4.7zM1.4 16.3 2.8 21l4.8-1.3-2.3-3.5z"/><path class="st1" d="M7.3 10.4 6 12.5l4.7.2-.2-5.1zM16.7 10.4l-3.3-2.9-.1 5.2 4.7-.2zM7.6 19.7l2.8-1.4-2.5-2zM13.6 18.3l2.8 1.4-.4-3.4z"/><path class="st2" d="m16.4 19.7-2.8-1.4.2 1.8v.8zM7.6 19.7l2.6 1.2v-.8l.2-1.8z"/><path class="st3" d="m10.3 15.1-2.4-.7 1.7-.8zM13.7 15.1l.7-1.5 1.7.8z"/><path class="st4" d="m7.6 19.7.4-3.5-2.7.1zM16 16.2l.4 3.5 2.3-3.4zM18 12.5l-4.7.2.4 2.4.7-1.5 1.7.8zM7.9 14.4l1.7-.8.7 1.5.4-2.4-4.7-.2z"/><g><path class="st5" d="m6 12.5 1.9 3.8v-1.9zM16.1 14.4l-.1 1.9 2-3.8zM10.7 12.7l-.4 2.4.5 2.9.1-3.8zM13.3 12.7l-.2 1.5.1 3.8.5-2.9z"/></g><path class="st6" d="m13.7 15.1-.5 2.9.4.3 2.4-2 .1-1.9zM7.9 14.4v1.9l2.5 2 .4-.3-.5-2.9z"/><path style="fill:#c0ad9e" d="M13.8 20.9v-.8l-.2-.2h-3.2l-.2.2v.8l-2.6-1.2.9.7 1.9 1.3h3.2l1.9-1.3.9-.7z"/><path style="fill:#161616" d="m13.6 18.3-.4-.3h-2.4l-.4.3-.2 1.8.2-.2h3.2l.2.2z"/><g><path class="st9" d="m22 8.4.7-3.4-1-3.2-8.1 6 3.1 2.6 4.4 1.3 1-1.1-.5-.3.7-.6-.5-.4.7-.5zM1.2 5 2 8.4l-.5.4.7.5-.5.4.6.6-.4.3 1 1.1 4.4-1.3 3.1-2.6-8.1-6z"/></g><path class="st6" d="m21.1 11.7-4.4-1.3 1.3 2.1-2 3.8h6.6zM7.3 10.4l-4.4 1.3-1.5 4.6h6.5L6 12.5zM13.3 12.7l.3-4.9 1.2-3.5H9.1l1.3 3.5.3 4.9.1 1.5V18h2.4v-3.8z"/></svg>