<svg width="16" height="16" fill="none" xmlns="http://www.w3.org/2000/svg"><path d="M3.28 4.62a6.69 6.69 0 0 1 9.44 0l.32.31c.13.13.13.34 0 .47l-1.08 1.08a.17.17 0 0 1-.23 0l-.43-.44a4.66 4.66 0 0 0-6.6 0l-.46.47a.17.17 0 0 1-.23 0L2.93 5.44a.33.33 0 0 1 0-.47l.35-.35Zm11.66 2.22.96.95c.13.13.13.34 0 .47l-4.31 4.3a.33.33 0 0 1-.47 0L8.06 9.52a.08.08 0 0 0-.12 0l-3.06 3.06a.33.33 0 0 1-.47 0L.1 8.27a.33.33 0 0 1 0-.48l.96-.95a.33.33 0 0 1 .47 0l3.05 3.05c.04.04.1.04.12 0l3.06-3.05a.33.33 0 0 1 .47 0l3.06 3.05c.03.04.09.04.12 0l3.06-3.05a.34.34 0 0 1 .47 0Z" fill="#3B99FC"/></svg>