<svg width="24" height="24" fill="none" xmlns="http://www.w3.org/2000/svg"><path fill-rule="evenodd" clip-rule="evenodd" d="M12 20.29a8.29 8.29 0 0 0 8.24-7.43h-.53V12h-.85v.86h-4.29V12h-.86v.86H12v-2.57h3.43V8.57h1.71v.86H18v-.86h1.55a8.29 8.29 0 0 0-12.2-3.43H12V6h.86v-.86 2.57h-2.57v.86h-.86v.86h-5.3A8.28 8.28 0 0 0 12 20.29ZM12 1.7c-3.05 0-5.78 1.33-7.67 3.43H4.3v.06A10.29 10.29 0 1 0 12 1.72Zm6 8.58h-.86v.85H18v-.85ZM12 11h.86v.86H12V11ZM8.57 6.86H6.86V6h1.71v.86ZM5.14 9.43H6V7.7h-.86v1.72Z" fill="currentColor"/><path fill-rule="evenodd" clip-rule="evenodd" d="M11 15h1v2h-2v2H9v-1H8v1H5a1 1 0 0 1-1-1v-1a1 1 0 0 1-1-1v-1h2v1h1v-1h1v2h1v-2h2v1h1v-1Z" fill="currentColor"/></svg>