<svg width="1281" height="199" fill="none" xmlns="http://www.w3.org/2000/svg"><path d="m247 153-6-2-2-6V56l2-6 6-2h38c14 0 25 3 32 9 6 6 10 16 10 28 0 11-4 20-10 26-7 6-18 9-32 9h-15v25c0 3 0 5-2 6l-6 2h-15Zm35-55c5 0 8-1 10-3 2-3 4-6 4-10 0-5-2-9-4-11s-5-3-10-3h-12v27h12ZM363 155c-10 0-17-3-23-9s-9-15-9-26a40 40 0 0 1 23-38 74 74 0 0 1 62 4v62l-1 4-4 1h-18l-2-2-2-5c-3 3-7 6-11 7-4 2-9 2-15 2Zm12-21 9-2c2-2 3-5 3-9V99l-7-1c-5 0-10 2-13 5-3 4-5 10-5 17 0 9 4 14 13 14ZM438 153l-7-2-1-6V80l5-1h16l2 1 2 2v4c3-3 7-5 12-7l15-2c9 0 15 2 21 7 5 5 7 11 7 21v40c0 3 0 5-2 6l-6 2h-15l-6-2-2-6v-38c0-4-1-6-2-7l-6-2-8 2-2 7v38l-2 6-6 2h-15ZM565 155c-15 0-26-3-34-10-7-6-11-16-11-29 0-8 2-14 5-20 4-6 9-11 16-14 7-4 15-5 24-5 7 0 13 0 18 2 5 1 9 3 13 6l2 3-2 3-6 11-2 2-3-1-8-4-9-1c-5 0-9 1-13 5-3 3-4 8-4 13 0 6 1 11 4 14 4 3 8 4 14 4l9-1 8-4 3-1 2 2 7 12 1 2-2 3c-4 3-9 5-14 6-5 2-11 2-18 2ZM638 155c-10 0-17-3-23-9s-9-15-9-26a40 40 0 0 1 23-38 74 74 0 0 1 62 4v62l-1 4-4 1h-19l-1-2-2-5c-3 3-7 6-11 7-4 2-9 2-15 2Zm12-21 9-2c2-2 3-5 3-9V99l-7-1c-5 0-10 2-13 5-3 4-5 10-5 17 0 9 4 14 13 14ZM788 147l1 3-1 2-2 1h-27l-2-2-21-28v22l-2 6-7 2h-15l-6-2-2-6V56l2-6 6-2h15l7 2 2 6v52l20-27 2-1 3-1h24l2 1 1 2-1 3-26 30 27 32ZM838 155c-9 0-16-1-23-4s-12-7-16-13-6-13-6-21c0-13 4-23 11-30 8-7 18-10 32-10s24 3 31 10 11 16 11 28c0 5-3 8-7 8h-49c0 4 2 7 5 10 4 2 9 3 16 3l10-1 9-3 2-1 3 2 5 10 1 2-2 3-15 6-18 1Zm12-48c0-4-1-7-4-9-2-2-5-3-10-3-4 0-8 1-10 3-2 3-4 6-4 9h28ZM930 155c-8 0-16 0-24-2s-14-5-19-8l-2-3 1-3 7-12 3-2 2 1a57 57 0 0 0 27 7c5 0 9 0 11-2 2-1 4-4 4-7s-2-5-4-7l-14-7c-11-3-19-8-25-13-5-5-8-11-8-20 0-10 3-18 11-23 7-5 17-8 29-8l21 2c7 2 12 4 16 7 2 1 2 3 2 4v2l-8 12-2 2-3-1c-6-4-13-6-21-6l-11 2c-2 2-3 4-3 7l2 6 5 4 10 4 3 1 17 9c5 2 8 6 10 10 3 3 4 8 4 14 0 10-4 17-11 22-6 6-16 8-30 8ZM1004 153l-4-1-2-3-20-66v-2c0-1 1-2 3-2h20l3 1 2 2 8 35 10-28 2-3h16l1 3 11 28 8-35 1-2 3-1h21c2 0 3 1 3 2l-1 2-20 66c0 2-1 3-2 3l-3 1h-15l-3-1c-1 0-2-1-2-3l-10-28-10 28-2 3-4 1h-14ZM1129 155c-10 0-18-3-24-9-5-6-8-15-8-26a40 40 0 0 1 23-38 74 74 0 0 1 62 4v62l-1 4-4 1h-19l-1-2-2-5c-3 3-7 6-11 7-4 2-9 2-15 2Zm11-21 10-2c2-2 3-5 3-9V99l-7-1c-6 0-10 2-13 5-4 4-5 10-5 17 0 9 4 14 12 14ZM1203 184c-3 0-5 0-6-2l-2-5V88a74 74 0 0 1 39-11c31 0 47 13 47 39 0 12-3 22-10 29-6 7-16 10-28 10l-10-1-7-3v26l-2 5c-1 2-4 2-6 2h-15Zm34-49c4 0 7-2 9-5 3-4 4-8 4-14 0-7-1-11-4-14s-7-4-12-4l-8 1v25l2 8c2 2 5 3 9 3Z" fill="#fff"/><path fill-rule="evenodd" clip-rule="evenodd" d="M98 199c-30 0-53-7-70-20a63 63 0 0 1-25-51c0-20 9-34 19-44 8-7 16-12 22-15a312 312 0 0 1-8-38c0-8 1-15 6-21C47 3 54 0 62 0c7 0 13 2 17 7 5 4 7 9 9 15 4 10 5 23 6 35h8c0-12 1-25 5-35 2-6 5-11 9-15 5-5 10-7 17-7 9 0 16 3 21 10 4 6 6 13 6 21 0 7-2 15-4 23l-5 15c6 3 15 8 23 15 9 10 18 24 18 44s-9 38-25 51c-17 13-40 20-69 20Z" fill="#633001"/><path d="M62 7C50 7 44 17 44 30c0 10 7 31 9 40 1 1 0 3-2 4-10 4-40 19-40 53 0 35 31 62 87 62s86-27 86-62c0-34-30-49-40-53-2-1-3-3-2-4 3-9 9-30 9-40 0-13-5-23-18-23-18 0-23 26-23 54 0 2-2 4-3 4H89c-2 0-4-2-4-4 0-28-5-54-23-54Z" fill="#D1884F"/><path d="M98 178c-41 0-87-22-87-51 0 36 31 62 87 62s86-26 86-62c0 29-45 51-86 51Z" fill="#FEDC90"/><path d="M75 118c0 10-5 15-10 15-6 0-10-5-10-15s4-15 10-15c5 0 10 5 10 15ZM141 118c0 10-5 15-10 15-6 0-10-5-10-15s4-15 10-15c5 0 10 5 10 15Z" fill="#633001"/></svg>