<svg width="24" height="24" fill="none" xmlns="http://www.w3.org/2000/svg"><path fill-rule="evenodd" clip-rule="evenodd" d="M5.33 1.44H8v2.67H5.33V1.44ZM8 4.11v9.33H5.33V4.11H8Zm0 9.33v2.67H5.33v-2.67H8Zm0 5.34V16.1H5.33v2.67H8ZM5.33 4.1H2.67v2.67h2.66V4.1ZM0 6.78h2.67v2.66H0V6.78ZM10.67 4.1H8v2.67h2.67V4.1Zm0 2.67h2.66v2.66h-2.66V6.78Zm8 13.33v2.67H16v-12h2.67v9.33ZM16 10.78V8.1h2.67v2.67H16Zm0-5.34v2.67h2.67V5.44H16Zm2.67 14.67h2.66v-2.67h-2.66v2.67ZM24 17.44h-2.67v-2.66H24v2.66Zm-10.67 2.67H16v-2.67h-2.67v2.67Zm0-2.67h-2.66v-2.66h2.66v2.66Z" fill="currentColor"/></svg>