<svg width="20" height="20" viewBox="0 0 20 20" fill="none" xmlns="http://www.w3.org/2000/svg">
<g clip-path="url(#clip0_1888_21264)">
<path d="M14.1315 6.95267C16.6492 7.61128 18.3416 8.84513 18.3416 10.2624C18.3416 12.3716 14.6067 14.0723 10.0048 14.0723C5.40286 14.0723 1.66797 12.3716 1.66797 10.2624C1.66797 8.84513 3.36868 7.60294 5.89473 6.94434" stroke="white" stroke-width="1.66667" stroke-linecap="round" stroke-linejoin="round"/>
<path d="M14.1727 7.52393C14.1727 8.57633 12.3065 9.42948 10.0043 9.42948C7.7022 9.42948 5.83594 8.57633 5.83594 7.52393" stroke="white" stroke-width="1.66667" stroke-linecap="round" stroke-linejoin="round"/>
<path d="M14.1722 7.52384V7.4943C14.1722 6.39104 13.7339 5.33298 12.9538 4.55286C12.1737 3.77274 11.1156 3.33447 10.0124 3.33447V3.33447C8.90912 3.33447 7.85105 3.77274 7.07093 4.55285C6.29081 5.33297 5.85254 6.39104 5.85254 7.4943V7.52384" stroke="white" stroke-width="1.66667" stroke-linecap="round" stroke-linejoin="round"/>
<path d="M12.5791 13.8853L14.1724 16.6736" stroke="white" stroke-width="1.66667" stroke-linecap="round" stroke-linejoin="round"/>
<path d="M7.42926 13.8853L5.83594 16.6736" stroke="white" stroke-width="1.66667" stroke-linecap="round" stroke-linejoin="round"/>
<path d="M10.0464 11.7879C10.0464 11.811 10.0278 11.8296 10.0047 11.8296C9.98171 11.8296 9.96305 11.811 9.96305 11.7879C9.96305 11.7649 9.98171 11.7462 10.0047 11.7462" stroke="white" stroke-width="1.66667" stroke-linecap="round" stroke-linejoin="round"/>
<path d="M10.0044 11.7461C10.0274 11.7461 10.0461 11.7648 10.0461 11.7878" stroke="white" stroke-width="1.66667" stroke-linecap="round" stroke-linejoin="round"/>
<path d="M5.85208 10.6917C5.85208 10.7086 5.84192 10.7238 5.82635 10.7303C5.81077 10.7367 5.79284 10.7331 5.78092 10.7212C5.769 10.7093 5.76543 10.6914 5.77188 10.6758C5.77834 10.6602 5.79354 10.6501 5.81039 10.6501" stroke="white" stroke-width="1.66667" stroke-linecap="round" stroke-linejoin="round"/>
<path d="M5.81104 10.6504C5.83406 10.6504 5.85272 10.6691 5.85272 10.6921" stroke="white" stroke-width="1.66667" stroke-linecap="round" stroke-linejoin="round"/>
<path d="M14.2456 10.6917C14.2456 10.7148 14.227 10.7334 14.2039 10.7334C14.1809 10.7334 14.1623 10.7148 14.1623 10.6917C14.1623 10.6687 14.1809 10.6501 14.2039 10.6501" stroke="white" stroke-width="1.66667" stroke-linecap="round" stroke-linejoin="round"/>
<path d="M14.2036 10.6504C14.2266 10.6504 14.2453 10.6691 14.2453 10.6921" stroke="white" stroke-width="1.66667" stroke-linecap="round" stroke-linejoin="round"/>
</g>
<defs>
<clipPath id="clip0_1888_21264">
<rect width="20" height="20" fill="white"/>
</clipPath>
</defs>
</svg>
