<svg width="24" height="24" fill="none" xmlns="http://www.w3.org/2000/svg"><path d="M12 1.37c3.69 2.86 7.92 2.68 9.13 2.68-.27 16.27-2.28 14.1-9.14 18.66-6.85-4.56-8.85-2.39-9.12-18.66 1.2 0 5.43.18 9.12-2.68Z" fill="#fff"/><path d="m12 1.37.53-.69a.87.87 0 0 0-1.07 0l.53.7Zm9.13 2.68.87.02a.87.87 0 0 0-.87-.89v.87Zm-9.14 18.66-.48.73a.87.87 0 0 0 .97 0l-.49-.73ZM2.87 4.05v-.87a.87.87 0 0 0-.87.89l.87-.02Zm8.6-1.99c3.95 3.06 8.47 2.87 9.66 2.87V3.18c-1.23 0-5.17.16-8.6-2.5l-1.07 1.38Zm8.79 1.98c-.07 4.05-.24 6.9-.57 9.02-.32 2.1-.78 3.34-1.38 4.23a6.9 6.9 0 0 1-2.48 2.12c-1.13.68-2.56 1.41-4.32 2.58l.97 1.45c1.67-1.11 3.06-1.82 4.24-2.53a9.27 9.27 0 0 0 3.03-2.65c.8-1.18 1.32-2.72 1.66-4.94.34-2.2.52-5.17.59-9.25l-1.74-.03Zm-7.78 17.95c-1.76-1.17-3.19-1.9-4.32-2.58a6.87 6.87 0 0 1-2.48-2.12c-.59-.88-1.05-2.14-1.37-4.23a69.7 69.7 0 0 1-.57-9.02L2 4.07c.07 4.09.25 7.06.58 9.25.35 2.22.86 3.76 1.66 4.94a9.25 9.25 0 0 0 3.03 2.65c1.18.7 2.57 1.42 4.24 2.53l.97-1.45ZM2.88 4.93c1.17 0 5.7.2 9.64-2.87L11.46.68c-3.43 2.66-7.37 2.5-8.59 2.5v1.75Z" fill="#3375BB"/></svg>