<svg width="16" height="16" fill="none" xmlns="http://www.w3.org/2000/svg"><rect y="1" width="16" height="14" rx="3" fill="#F0F4FF"/><mask id="a" style="mask-type:alpha" maskUnits="userSpaceOnUse" x="0" y="1" width="16" height="14"><rect y="1" width="16" height="14" rx="3" fill="#F0F4FF"/></mask><g clip-path="url(#b)" mask="url(#a)"><path d="M9.55 7.73c0 1.82-1.5 3.29-3.36 3.29a3.33 3.33 0 0 1-3.37-3.3c0-1.81 1.51-3.29 3.37-3.29a3.33 3.33 0 0 1 3.36 3.3Z" fill="#E2574C"/><path d="M10.28 4.43a3.4 3.4 0 0 0-2 .66c.1.1.23.18.32.3h-.7c-.11.12-.21.23-.3.36h1.23c.1.1.18.2.26.32H7.37l-.17.33h2.09c.05.12.1.2.14.32H7.08l-.1.35h2.55l.06.33H6.93l-.01.33H9.6c0 .11-.01.22-.03.32H6.93l.05.33h2.54l-.09.33H7.07c.03.11.08.22.13.33h2.09c-.06.12-.13.21-.2.33H7.37c.06.11.14.22.22.33l1.24.02c-.1.12-.24.2-.36.3h-.6a3.39 3.39 0 0 0 5.78-2.3c0-1.81-1.5-3.29-3.37-3.29Z" fill="#F4B459"/></g><defs><clipPath id="b"><path fill="#fff" transform="translate(2.82 4.43)" d="M0 0h10.82v6.59H0z"/></clipPath></defs></svg>