<svg width="16" height="16" fill="none" xmlns="http://www.w3.org/2000/svg"><rect y="1" width="16" height="14" rx="3" fill="#1F45A8"/><g clip-path="url(#a)" fill="#fff"><path d="m6.69 5.8-.67 3.93h1.07l.67-3.93H6.69ZM5.12 5.8 4.07 8.5l-.11-.4a4.2 4.2 0 0 0-1.48-1.64l.95 3.28h1.14L6.25 5.8H5.12Z"/><path d="M3.55 6.09c-.06-.24-.24-.31-.46-.32H1.43l-.02.08c1.3.31 2.15 1.07 2.5 1.97L3.55 6.1ZM9.93 6.56c.35 0 .6.07.8.15l.1.04.14-.85a2.76 2.76 0 0 0-.96-.16c-1.05 0-1.8.53-1.8 1.3-.01.56.52.87.93 1.06.42.2.56.32.56.49 0 .26-.34.38-.64.38-.43 0-.66-.06-1.01-.2L7.9 8.7l-.15.88c.25.11.71.2 1.2.21 1.12 0 1.85-.53 1.86-1.34 0-.45-.28-.79-.9-1.07-.38-.18-.6-.3-.6-.49 0-.16.2-.33.61-.33ZM13.72 5.8h-.83c-.25 0-.44.08-.56.33l-1.59 3.6h1.13l.22-.59h1.37l.13.6h1l-.87-3.93ZM12.4 8.35l.43-1.1.14-.37.07.34.25 1.13h-.89Z"/></g><defs><clipPath id="a"><path fill="#fff" transform="translate(1 1)" d="M0 0h14v14H0z"/></clipPath></defs></svg>