<svg width="16" height="16" fill="none" xmlns="http://www.w3.org/2000/svg"><path fill-rule="evenodd" clip-rule="evenodd" d="M14 0H2v1H1v1H0v12h1v1h1v1h12v-1h1v-1h1V2h-1V1h-1V0Z" fill="url(#a)"/><path fill-rule="evenodd" clip-rule="evenodd" d="M5 2H4v1H3v1H2v8h1v1h1v1h8v-1h1v-1h1V4h-1V3h-1V2H5Zm7 1v1h1v8h-1v1H4v-1H3V4h1V3h8ZM8 5H7v1H6v1H5v2h1v1h1v1h2v-1h1V9h1V7h-1V6h1V5h-1v1H9V5H8Zm1 1v1h1v2H9v1H7V9H6V7h1V6h2Z" fill="#fff"/><path fill-rule="evenodd" clip-rule="evenodd" d="M3 0H2v1H1v1H0v12h1V2h1V1h12V0H3Z" fill="#fff" fill-opacity=".1"/><path fill-rule="evenodd" clip-rule="evenodd" d="M16 2h-1v12h-1v1H2v1h12v-1h1v-1h1V2Z" fill="#000" fill-opacity=".1"/><defs><linearGradient id="a" x1="16" y1="0" x2="0" y2="16" gradientUnits="userSpaceOnUse"><stop offset=".1" stop-color="#B613C8"/><stop offset=".8" stop-color="#F7D23B"/></linearGradient></defs></svg>