<svg width="50" height="50" fill="none" xmlns="http://www.w3.org/2000/svg"><circle cx="25" cy="25" r="25" fill="url(#a)"/><mask id="c" style="mask-type:alpha" maskUnits="userSpaceOnUse" x="0" y="0" width="50" height="50"><circle cx="25" cy="25" r="25" fill="url(#b)"/></mask><g mask="url(#c)"><mask id="d" style="mask-type:alpha" maskUnits="userSpaceOnUse" x="12" y="8" width="26" height="56"><path d="M24.986 8c-1.745 0-3.404.328-4.977.985a13.349 13.349 0 0 0-4.119 2.683 12.726 12.726 0 0 0-2.803 3.941c-.687 1.505-1.03 3.12-1.03 4.845v6.185c0 1.725.343 3.34 1.03 4.845a12.727 12.727 0 0 0 2.803 3.941 13.347 13.347 0 0 0 4.119 2.683c1.573.656 3.232.985 4.977.985 1.802 0 3.346.602 4.633 1.834 1.288 1.231 1.917 2.71 1.917 4.434v6.185c0 1.725-.63 3.203-1.917 4.434-1.287 1.232-2.831 1.834-4.633 1.834-1.745 0-3.261-.602-4.548-1.834-1.287-1.231-1.917-2.71-1.917-4.434v-3.065H12v3.065c0 1.725.343 3.34 1.03 4.845a12.726 12.726 0 0 0 2.803 3.941 13.349 13.349 0 0 0 4.119 2.683c1.573.657 3.232.985 4.976.985 1.802 0 3.49-.328 5.063-.985a13.349 13.349 0 0 0 4.119-2.683 12.726 12.726 0 0 0 2.803-3.941c.687-1.505 1.03-3.12 1.03-4.845v-6.185c0-1.725-.343-3.34-1.03-4.845a12.727 12.727 0 0 0-2.803-3.941 13.347 13.347 0 0 0-4.119-2.683c-1.573-.656-3.26-.985-5.063-.985-1.744 0-3.26-.602-4.547-1.834-1.288-1.231-1.917-2.71-1.917-4.434v-6.185c0-1.725.63-3.203 1.917-4.434 1.287-1.232 2.803-1.834 4.547-1.834 1.802 0 3.347.602 4.634 1.834 1.287 1.231 1.917 2.71 1.916 4.434v.47H38v-.47c0-1.725-.343-3.34-1.03-4.845a12.726 12.726 0 0 0-2.803-3.941 13.349 13.349 0 0 0-4.119-2.683C28.475 8.328 26.788 8 24.986 8Z" fill="#27FDFF"/></mask><g mask="url(#d)"><ellipse cx="23.5" cy="32" rx="26.5" ry="32" fill="url(#e)"/></g></g><defs><radialGradient id="a" cx="0" cy="0" r="1" gradientUnits="userSpaceOnUse" gradientTransform="rotate(-34.38 94.77 88.643) scale(103.598)"><stop offset=".625" stop-color="#A800FB"/><stop offset=".703" stop-color="#6071FF"/><stop offset=".825" stop-color="#27FDFF"/></radialGradient><radialGradient id="b" cx="0" cy="0" r="1" gradientUnits="userSpaceOnUse" gradientTransform="rotate(-34.38 94.77 88.643) scale(103.598)"><stop offset=".603" stop-color="#A800FB"/><stop offset=".704" stop-color="#6071FF"/><stop offset=".825" stop-color="#27FDFF"/></radialGradient><radialGradient id="e" cx="0" cy="0" r="1" gradientUnits="userSpaceOnUse" gradientTransform="rotate(-39.564 103.525 97.695) scale(117.562 123.865)"><stop offset=".603" stop-color="#A800FB"/><stop offset=".704" stop-color="#6071FF"/><stop offset=".828" stop-color="#68FEFF"/></radialGradient></defs></svg>