<svg width="24" height="24" fill="none" xmlns="http://www.w3.org/2000/svg"><mask id="a" style="mask-type:alpha" maskUnits="userSpaceOnUse" x="0" y="0" width="24" height="24"><circle cx="12" cy="12" r="12" fill="#C4C4C4"/></mask><g mask="url(#a)"><path d="M27.3.2H-3.3A2.7 2.7 0 0 0-6 3v18.2c0 1.5 1.2 2.7 2.7 2.7h30.6c1.5 0 2.7-1.2 2.7-2.7V2.9C30 1.4 28.8.2 27.3.2Z" fill="#41479B"/><path d="M30.3 2.3A2.7 2.7 0 0 0 27.6 0h-.7L15.2 7.7V0H8.8v7.7L-2.9 0h-.7C-4.9 0-6 1-6.3 2.3l10 6.5h-10v6.4h10l-10 6.5A2.7 2.7 0 0 0-3.6 24h.7l11.7-7.7V24h6.4v-7.7L26.9 24h.7c1.3 0 2.5-1 2.7-2.3l-10-6.5h10V8.8h-10l10-6.5Z" fill="#F5F5F5"/><path d="M13.9 0H10v10.1H-6.3V14H10V24H14V13.9h16.4V10H14V0Z" fill="#FF4B55"/><path d="m-4.5 23.8 13.3-8.6H6.5L-5.7 23c.3.4.7.7 1.2.8ZM18.5 15.2H16l13 8.4.9-1-11.5-7.4ZM-6 1.5 5.3 8.8h2.3L-5.2.5c-.4.3-.6.6-.8 1ZM17.5 8.8 29.6 1c-.3-.3-.6-.6-1-.7L15.1 8.8h2.3Z" fill="#FF4B55"/></g></svg>